<svg xmlns="http://www.w3.org/2000/svg" viewBox="0 0 978.6 155.74"><path class="a" d="M137.74 120.93L82 65.19l55.74-55.74 55.74 55.74zM92.49 65.19l45.25 45.25L183 65.19l-45.26-45.25z"/><path class="a" d="M134.24 16.19h7v98h-7zm44.5-6.74v10.49L224 65.19l-45.26 45.26v10.48l55.74-55.74-55.74-55.74zm41 101v10.48l55.74-55.74H265l-45.26 45.26zm-123-101v10.49L51.48 65.19l45.26 45.26v10.48L41 65.19 96.74 9.45zm-41 101v10.48L0 65.19h10.48l45.26 45.26zm318.37 9.19l-29.62-50.42h-23.3v50.42h-7.65V10h31.28a64.24 64.24 0 0 1 14.81 1.58A31.13 31.13 0 0 1 371 16.64a23.24 23.24 0 0 1 7.32 9 31.16 31.16 0 0 1 2.58 13.31q0 13.15-7.57 20.55t-20.55 9.23l30.28 50.92zM342.83 62.9q14.64 0 22.46-5.91t7.82-18.05q0-12.31-7.82-17.39t-22.46-5.07h-21.64V62.9zm62.23 16.97A48.94 48.94 0 0 1 408.13 62a37.81 37.81 0 0 1 8.4-13.23 36.54 36.54 0 0 1 12.4-8.15 40.62 40.62 0 0 1 29.78 0 36.59 36.59 0 0 1 12.4 8.15A37.89 37.89 0 0 1 479.52 62a49 49 0 0 1 3.08 17.89 47.68 47.68 0 0 1-3.08 17.72 38.15 38.15 0 0 1-8.4 13.06 36.5 36.5 0 0 1-12.4 8.15 40.61 40.61 0 0 1-29.78 0 36.45 36.45 0 0 1-12.4-8.15 38.08 38.08 0 0 1-8.4-13.06 47.62 47.62 0 0 1-3.08-17.74zm7.82 0a42 42 0 0 0 2.33 14.31 34.28 34.28 0 0 0 6.41 11.15 28.46 28.46 0 0 0 9.73 7.24 31.28 31.28 0 0 0 24.88 0 28.28 28.28 0 0 0 9.82-7.24 34.37 34.37 0 0 0 6.41-11.15 42.1 42.1 0 0 0 2.33-14.31 42.63 42.63 0 0 0-2.33-14.48A35.4 35.4 0 0 0 466 54.16a27.86 27.86 0 0 0-9.82-7.32 31.28 31.28 0 0 0-24.88 0 28 28 0 0 0-9.73 7.32 35.3 35.3 0 0 0-6.41 11.23 42.56 42.56 0 0 0-2.28 14.48zm105.82 46.75v29.12h-7.49v-116h6.32l.83 11.48h.33a52.33 52.33 0 0 1 14-9.65 36.37 36.37 0 0 1 15.81-3.83q17 0 25.46 11.06t8.49 29.7a50.15 50.15 0 0 1-3.08 18.14 42.72 42.72 0 0 1-8.15 13.56 33.93 33.93 0 0 1-11.9 8.49 36.12 36.12 0 0 1-14.32 2.94 34.63 34.63 0 0 1-13.06-3 49 49 0 0 1-13.39-8.32zm0-23.29a46.06 46.06 0 0 0 14.06 9.07q7.07 2.75 11.9 2.75a27.08 27.08 0 0 0 12-2.66 28.08 28.08 0 0 0 9.48-7.49 35.54 35.54 0 0 0 6.24-11.56 46.89 46.89 0 0 0 2.25-14.89 59.15 59.15 0 0 0-1.5-13.64A31 31 0 0 0 568.37 54a22.27 22.27 0 0 0-8.49-7.15 28.22 28.22 0 0 0-12.56-2.58 31.8 31.8 0 0 0-13.73 3.58A55.9 55.9 0 0 0 518.7 58.9zm87.69-23.46a43.68 43.68 0 0 1 3.41-17.64 41 41 0 0 1 9-13.23 39.54 39.54 0 0 1 12.73-8.32 39 39 0 0 1 14.81-2.91 40.71 40.71 0 0 1 14.81 2.58 30.85 30.85 0 0 1 18.45 18.89 44.84 44.84 0 0 1 2.5 15.47v3a13.84 13.84 0 0 1-.33 3H614a39.14 39.14 0 0 0 2.75 13.89 31.74 31.74 0 0 0 18.14 18.14 37.73 37.73 0 0 0 14.23 2.58 41.26 41.26 0 0 0 14.48-2.41 57 57 0 0 0 12.15-6.24l3 5.66a79 79 0 0 1-12.65 6.41q-7.16 2.91-17.64 2.91a46.68 46.68 0 0 1-16.31-2.83 38.41 38.41 0 0 1-22.46-21.38 44 44 0 0 1-3.3-17.57zm68.55-5.16q0-15.14-7.74-22.88t-20.72-7.74A32.16 32.16 0 0 0 635 46.17a30 30 0 0 0-9.82 6.07A35.72 35.72 0 0 0 614 74.71zm45.59-34.94h6.32l.83 19.63h.32a55 55 0 0 1 16.06-15.56 39.37 39.37 0 0 1 21.55-6.07 50.25 50.25 0 0 1 8.07.67 26.13 26.13 0 0 1 7.9 2.66l-2 6.49a66 66 0 0 0-7.4-2.16 37.61 37.61 0 0 0-7.74-.67 35.46 35.46 0 0 0-19.05 5.66q-9.07 5.66-17.39 19.3v49.92h-7.49zm84.69 75.87l62.56-69.55h-55.9v-6.32h67.06v3.83l-62.56 69.55h64.39v6.49h-75.55zM910.54 0H918v34.61l-.5 21a88.57 88.57 0 0 1 15.06-12.81 30.58 30.58 0 0 1 17.22-5q28.78 0 28.79 32.11v49.75h-7.49V70.88q0-13.48-5.24-20t-17.22-6.49a28.1 28.1 0 0 0-8 1.08 29.19 29.19 0 0 0-7.24 3.33 52.23 52.23 0 0 0-7.32 5.66q-3.74 3.41-8.07 7.9v57.24h-7.49z"/></svg>